G04 #@! TF.FileFunction,Copper,L1,Top,Signal*
%FSLAX46Y46*%
G04 Gerber Fmt 4.6, Leading zero omitted, Abs format (unit mm)*
G04 Created by KiCad (PCBNEW 4.0.4-stable) date Saturday, 28 January 2017 'PMt' 01:33:58 PM*
%MOMM*%
%LPD*%
G01*
G04 APERTURE LIST*
%ADD10C,0.100000*%
%ADD11R,1.600000X1.600000*%
%ADD12C,1.600000*%
%ADD13O,1.501140X2.499360*%
%ADD14C,1.400000*%
%ADD15O,1.400000X1.400000*%
%ADD16C,1.397000*%
%ADD17C,1.524000*%
%ADD18O,1.600000X1.600000*%
%ADD19C,3.500120*%
%ADD20R,2.400000X2.400000*%
%ADD21O,2.400000X2.400000*%
%ADD22C,2.000000*%
%ADD23C,0.400000*%
%ADD24C,1.000000*%
%ADD25C,1.500000*%
G04 APERTURE END LIST*
D10*
D11*
X165735000Y-104140000D03*
D12*
X163235000Y-104140000D03*
D13*
X163195000Y-94615000D03*
X160655000Y-94615000D03*
X165735000Y-94615000D03*
X147955000Y-94615000D03*
X145415000Y-94615000D03*
X150495000Y-94615000D03*
D14*
X151130000Y-115570000D03*
D15*
X153670000Y-115570000D03*
D16*
X153670000Y-118110000D03*
X156210000Y-118110000D03*
D14*
X142240000Y-112395000D03*
D15*
X142240000Y-114935000D03*
D14*
X147320000Y-114935000D03*
D15*
X147320000Y-112395000D03*
D14*
X162560000Y-107950000D03*
D15*
X162560000Y-110490000D03*
D14*
X144780000Y-104775000D03*
D15*
X144780000Y-102235000D03*
D14*
X160020000Y-113030000D03*
D15*
X160020000Y-110490000D03*
D17*
X144780000Y-117475000D03*
X147320000Y-120015000D03*
X142240000Y-120015000D03*
D11*
X149860000Y-104140000D03*
D18*
X157480000Y-111760000D03*
X149860000Y-106680000D03*
X157480000Y-109220000D03*
X149860000Y-109220000D03*
X157480000Y-106680000D03*
X149860000Y-111760000D03*
X157480000Y-104140000D03*
D19*
X158115000Y-74295000D03*
X163195000Y-74295000D03*
X143510000Y-74295000D03*
X148590000Y-74295000D03*
D20*
X156845000Y-86995000D03*
D21*
X167005000Y-86995000D03*
D11*
X165735000Y-107950000D03*
D18*
X165735000Y-115570000D03*
D11*
X142240000Y-102235000D03*
D18*
X142240000Y-109855000D03*
D12*
X160020000Y-106680000D03*
X160020000Y-104180000D03*
X153035000Y-83185000D03*
X148035000Y-81685000D03*
D22*
X148590000Y-77470000D03*
X158590000Y-78970000D03*
D12*
X153035000Y-86995000D03*
X148035000Y-85495000D03*
D23*
X165735000Y-104140000D02*
X165735000Y-107950000D01*
X162560000Y-107950000D02*
X165735000Y-107950000D01*
D24*
X156845000Y-86995000D02*
X156845000Y-100965000D01*
X157480000Y-106680000D02*
X160020000Y-106680000D01*
D23*
X153670000Y-115570000D02*
X159385000Y-115570000D01*
X160020000Y-114935000D02*
X160020000Y-113030000D01*
X159385000Y-115570000D02*
X160020000Y-114935000D01*
X153670000Y-115570000D02*
X153670000Y-118110000D01*
X149860000Y-106680000D02*
X153035000Y-106680000D01*
X153670000Y-107315000D02*
X153670000Y-115570000D01*
X153035000Y-106680000D02*
X153670000Y-107315000D01*
X142240000Y-114935000D02*
X142240000Y-120015000D01*
X147320000Y-114935000D02*
X147320000Y-120015000D01*
X162560000Y-110490000D02*
X160020000Y-110490000D01*
X157480000Y-109220000D02*
X158750000Y-109220000D01*
X158750000Y-109220000D02*
X160020000Y-110490000D01*
X144780000Y-117475000D02*
X144780000Y-109220000D01*
X144780000Y-109220000D02*
X149860000Y-109220000D01*
X149225000Y-109220000D02*
X149860000Y-109220000D01*
G36*
X169980000Y-121720000D02*
X139900000Y-121720000D01*
X139900000Y-120284730D01*
X140877764Y-120284730D01*
X141084679Y-120785503D01*
X141467482Y-121168974D01*
X141967893Y-121376763D01*
X142509730Y-121377236D01*
X143010503Y-121170321D01*
X143393974Y-120787518D01*
X143601763Y-120287107D01*
X143602236Y-119745270D01*
X143395321Y-119244497D01*
X143040000Y-118888556D01*
X143040000Y-117744730D01*
X143417764Y-117744730D01*
X143624679Y-118245503D01*
X144007482Y-118628974D01*
X144507893Y-118836763D01*
X145049730Y-118837236D01*
X145550503Y-118630321D01*
X145933974Y-118247518D01*
X146141763Y-117747107D01*
X146142236Y-117205270D01*
X145935321Y-116704497D01*
X145580000Y-116348556D01*
X145580000Y-110020000D01*
X148715703Y-110020000D01*
X148842623Y-110209949D01*
X149261748Y-110490000D01*
X148842623Y-110770051D01*
X148539141Y-111224243D01*
X148435693Y-111744308D01*
X148239239Y-111450292D01*
X147817488Y-111168488D01*
X147320000Y-111069531D01*
X146822512Y-111168488D01*
X146400761Y-111450292D01*
X146118957Y-111872043D01*
X146020000Y-112369531D01*
X146020000Y-112420469D01*
X146118957Y-112917957D01*
X146400761Y-113339708D01*
X146822512Y-113621512D01*
X147006211Y-113658052D01*
X146584571Y-113832271D01*
X146218556Y-114197647D01*
X146020226Y-114675279D01*
X146019774Y-115192452D01*
X146217271Y-115670429D01*
X146520000Y-115973687D01*
X146520000Y-118889125D01*
X146166026Y-119242482D01*
X145958237Y-119742893D01*
X145957764Y-120284730D01*
X146164679Y-120785503D01*
X146547482Y-121168974D01*
X147047893Y-121376763D01*
X147589730Y-121377236D01*
X148090503Y-121170321D01*
X148473974Y-120787518D01*
X148681763Y-120287107D01*
X148682236Y-119745270D01*
X148475321Y-119244497D01*
X148120000Y-118888556D01*
X148120000Y-116585657D01*
X150397186Y-116585657D01*
X150461059Y-116830979D01*
X150994535Y-116990985D01*
X151548635Y-116934659D01*
X151798941Y-116830979D01*
X151862814Y-116585657D01*
X151130000Y-115852843D01*
X150397186Y-116585657D01*
X148120000Y-116585657D01*
X148120000Y-115973271D01*
X148421444Y-115672353D01*
X148520194Y-115434535D01*
X149709015Y-115434535D01*
X149765341Y-115988635D01*
X149869021Y-116238941D01*
X150114343Y-116302814D01*
X150847157Y-115570000D01*
X150114343Y-114837186D01*
X149869021Y-114901059D01*
X149709015Y-115434535D01*
X148520194Y-115434535D01*
X148619774Y-115194721D01*
X148620226Y-114677548D01*
X148569319Y-114554343D01*
X150397186Y-114554343D01*
X151130000Y-115287157D01*
X151862814Y-114554343D01*
X151798941Y-114309021D01*
X151265465Y-114149015D01*
X150711365Y-114205341D01*
X150461059Y-114309021D01*
X150397186Y-114554343D01*
X148569319Y-114554343D01*
X148422729Y-114199571D01*
X148057353Y-113833556D01*
X147634400Y-113657931D01*
X147817488Y-113621512D01*
X148239239Y-113339708D01*
X148521043Y-112917957D01*
X148620000Y-112420469D01*
X148620000Y-112416771D01*
X148842623Y-112749949D01*
X149296815Y-113053431D01*
X149832572Y-113160000D01*
X149887428Y-113160000D01*
X150423185Y-113053431D01*
X150877377Y-112749949D01*
X151180859Y-112295757D01*
X151287428Y-111760000D01*
X151180859Y-111224243D01*
X150877377Y-110770051D01*
X150458252Y-110490000D01*
X150877377Y-110209949D01*
X151180859Y-109755757D01*
X151287428Y-109220000D01*
X151180859Y-108684243D01*
X150877377Y-108230051D01*
X150458252Y-107950000D01*
X150877377Y-107669949D01*
X151004297Y-107480000D01*
X152703630Y-107480000D01*
X152870000Y-107646371D01*
X152870000Y-114554071D01*
X152725292Y-114650761D01*
X152454914Y-115055412D01*
X152390979Y-114901059D01*
X152145657Y-114837186D01*
X151412843Y-115570000D01*
X152145657Y-116302814D01*
X152390979Y-116238941D01*
X152443055Y-116065313D01*
X152443488Y-116067488D01*
X152725292Y-116489239D01*
X152870000Y-116585929D01*
X152870000Y-117073849D01*
X152569827Y-117373499D01*
X152371726Y-117850579D01*
X152371275Y-118367154D01*
X152568543Y-118844580D01*
X152933499Y-119210173D01*
X153410579Y-119408274D01*
X153927154Y-119408725D01*
X154404580Y-119211457D01*
X154770173Y-118846501D01*
X154940174Y-118437094D01*
X155108543Y-118844580D01*
X155473499Y-119210173D01*
X155950579Y-119408274D01*
X156467154Y-119408725D01*
X156944580Y-119211457D01*
X157310173Y-118846501D01*
X157508274Y-118369421D01*
X157508725Y-117852846D01*
X157311457Y-117375420D01*
X156946501Y-117009827D01*
X156469421Y-116811726D01*
X155952846Y-116811275D01*
X155475420Y-117008543D01*
X155109827Y-117373499D01*
X154939826Y-117782906D01*
X154771457Y-117375420D01*
X154470000Y-117073437D01*
X154470000Y-116585929D01*
X154614708Y-116489239D01*
X154694381Y-116370000D01*
X159385000Y-116370000D01*
X159691147Y-116309104D01*
X159950685Y-116135685D01*
X160543798Y-115542572D01*
X164335000Y-115542572D01*
X164335000Y-115597428D01*
X164441569Y-116133185D01*
X164745051Y-116587377D01*
X165199243Y-116890859D01*
X165735000Y-116997428D01*
X166270757Y-116890859D01*
X166724949Y-116587377D01*
X167028431Y-116133185D01*
X167135000Y-115597428D01*
X167135000Y-115542572D01*
X167028431Y-115006815D01*
X166724949Y-114552623D01*
X166270757Y-114249141D01*
X165735000Y-114142572D01*
X165199243Y-114249141D01*
X164745051Y-114552623D01*
X164441569Y-115006815D01*
X164335000Y-115542572D01*
X160543798Y-115542572D01*
X160585686Y-115500685D01*
X160759104Y-115241147D01*
X160820000Y-114935000D01*
X160820000Y-114068271D01*
X161121444Y-113767353D01*
X161319774Y-113289721D01*
X161320226Y-112772548D01*
X161122729Y-112294571D01*
X160757353Y-111928556D01*
X160334400Y-111752931D01*
X160517488Y-111716512D01*
X160939239Y-111434708D01*
X161035929Y-111290000D01*
X161544071Y-111290000D01*
X161640761Y-111434708D01*
X162062512Y-111716512D01*
X162560000Y-111815469D01*
X163057488Y-111716512D01*
X163479239Y-111434708D01*
X163761043Y-111012957D01*
X163860000Y-110515469D01*
X163860000Y-110464531D01*
X163761043Y-109967043D01*
X163479239Y-109545292D01*
X163057488Y-109263488D01*
X162873789Y-109226948D01*
X163295429Y-109052729D01*
X163598687Y-108750000D01*
X164323246Y-108750000D01*
X164365083Y-108972346D01*
X164496490Y-109176558D01*
X164696993Y-109313556D01*
X164935000Y-109361754D01*
X166535000Y-109361754D01*
X166757346Y-109319917D01*
X166961558Y-109188510D01*
X167098556Y-108988007D01*
X167146754Y-108750000D01*
X167146754Y-107150000D01*
X167104917Y-106927654D01*
X166973510Y-106723442D01*
X166773007Y-106586444D01*
X166535000Y-106538246D01*
X166535000Y-105551754D01*
X166757346Y-105509917D01*
X166961558Y-105378510D01*
X167098556Y-105178007D01*
X167146754Y-104940000D01*
X167146754Y-103340000D01*
X167104917Y-103117654D01*
X166973510Y-102913442D01*
X166773007Y-102776444D01*
X166535000Y-102728246D01*
X164935000Y-102728246D01*
X164712654Y-102770083D01*
X164508442Y-102901490D01*
X164371444Y-103101993D01*
X164338647Y-103263946D01*
X164029072Y-102953830D01*
X163514699Y-102740243D01*
X162957744Y-102739757D01*
X162443000Y-102952445D01*
X162048830Y-103345928D01*
X161835243Y-103860301D01*
X161834757Y-104417256D01*
X162047445Y-104932000D01*
X162440928Y-105326170D01*
X162955301Y-105539757D01*
X163512256Y-105540243D01*
X164027000Y-105327555D01*
X164337792Y-105017305D01*
X164365083Y-105162346D01*
X164496490Y-105366558D01*
X164696993Y-105503556D01*
X164935000Y-105551754D01*
X164935000Y-106538246D01*
X164712654Y-106580083D01*
X164508442Y-106711490D01*
X164371444Y-106911993D01*
X164323246Y-107150000D01*
X163598271Y-107150000D01*
X163297353Y-106848556D01*
X162819721Y-106650226D01*
X162302548Y-106649774D01*
X161824571Y-106847271D01*
X161458556Y-107212647D01*
X161260226Y-107690279D01*
X161259774Y-108207452D01*
X161457271Y-108685429D01*
X161822647Y-109051444D01*
X162245600Y-109227069D01*
X162062512Y-109263488D01*
X161640761Y-109545292D01*
X161544071Y-109690000D01*
X161035929Y-109690000D01*
X160939239Y-109545292D01*
X160517488Y-109263488D01*
X160020000Y-109164531D01*
X159858105Y-109196734D01*
X159315685Y-108654315D01*
X159056147Y-108480896D01*
X158750000Y-108420000D01*
X158624297Y-108420000D01*
X158497377Y-108230051D01*
X158143325Y-107993480D01*
X158427286Y-107843053D01*
X158488837Y-107768618D01*
X159214224Y-107768618D01*
X159290572Y-108024232D01*
X159860511Y-108201048D01*
X160454732Y-108146299D01*
X160749428Y-108024232D01*
X160825776Y-107768618D01*
X160020000Y-106962843D01*
X159214224Y-107768618D01*
X158488837Y-107768618D01*
X158764051Y-107435797D01*
X158931382Y-107485776D01*
X159737157Y-106680000D01*
X160302843Y-106680000D01*
X161108618Y-107485776D01*
X161364232Y-107409428D01*
X161541048Y-106839489D01*
X161486299Y-106245268D01*
X161364232Y-105950572D01*
X161108618Y-105874224D01*
X160302843Y-106680000D01*
X159737157Y-106680000D01*
X158931382Y-105874224D01*
X158764051Y-105924203D01*
X158427286Y-105516947D01*
X158143325Y-105366520D01*
X158497377Y-105129949D01*
X158744742Y-104759742D01*
X158832445Y-104972000D01*
X159225928Y-105366170D01*
X159275361Y-105386696D01*
X159214224Y-105591382D01*
X160020000Y-106397157D01*
X160825776Y-105591382D01*
X160764753Y-105387077D01*
X160812000Y-105367555D01*
X161206170Y-104974072D01*
X161419757Y-104459699D01*
X161420243Y-103902744D01*
X161207555Y-103388000D01*
X160814072Y-102993830D01*
X160299699Y-102780243D01*
X159742744Y-102779757D01*
X159228000Y-102992445D01*
X158833830Y-103385928D01*
X158765285Y-103551003D01*
X158497377Y-103150051D01*
X158043185Y-102846569D01*
X157507428Y-102740000D01*
X157452572Y-102740000D01*
X156916815Y-102846569D01*
X156462623Y-103150051D01*
X156159141Y-103604243D01*
X156052572Y-104140000D01*
X156159141Y-104675757D01*
X156462623Y-105129949D01*
X156816675Y-105366520D01*
X156532714Y-105516947D01*
X156159741Y-105967990D01*
X156042982Y-106249906D01*
X156170181Y-106480000D01*
X157280000Y-106480000D01*
X157280000Y-106460000D01*
X157680000Y-106460000D01*
X157680000Y-106480000D01*
X157700000Y-106480000D01*
X157700000Y-106880000D01*
X157680000Y-106880000D01*
X157680000Y-106900000D01*
X157280000Y-106900000D01*
X157280000Y-106880000D01*
X156170181Y-106880000D01*
X156042982Y-107110094D01*
X156159741Y-107392010D01*
X156532714Y-107843053D01*
X156816675Y-107993480D01*
X156462623Y-108230051D01*
X156159141Y-108684243D01*
X156052572Y-109220000D01*
X156159141Y-109755757D01*
X156462623Y-110209949D01*
X156881748Y-110490000D01*
X156462623Y-110770051D01*
X156159141Y-111224243D01*
X156052572Y-111760000D01*
X156159141Y-112295757D01*
X156462623Y-112749949D01*
X156916815Y-113053431D01*
X157452572Y-113160000D01*
X157507428Y-113160000D01*
X158043185Y-113053431D01*
X158497377Y-112749949D01*
X158800859Y-112295757D01*
X158907428Y-111760000D01*
X158800859Y-111224243D01*
X158497377Y-110770051D01*
X158078252Y-110490000D01*
X158497377Y-110209949D01*
X158541918Y-110143288D01*
X158743752Y-110345122D01*
X158720000Y-110464531D01*
X158720000Y-110515469D01*
X158818957Y-111012957D01*
X159100761Y-111434708D01*
X159522512Y-111716512D01*
X159706211Y-111753052D01*
X159284571Y-111927271D01*
X158918556Y-112292647D01*
X158720226Y-112770279D01*
X158719774Y-113287452D01*
X158917271Y-113765429D01*
X159220000Y-114068687D01*
X159220000Y-114603629D01*
X159053630Y-114770000D01*
X154694381Y-114770000D01*
X154614708Y-114650761D01*
X154470000Y-114554071D01*
X154470000Y-107315000D01*
X154409104Y-107008853D01*
X154323007Y-106880000D01*
X154235686Y-106749315D01*
X153600685Y-106114315D01*
X153341147Y-105940896D01*
X153035000Y-105880000D01*
X151004297Y-105880000D01*
X150877377Y-105690051D01*
X150668116Y-105550227D01*
X150882346Y-105509917D01*
X151086558Y-105378510D01*
X151223556Y-105178007D01*
X151271754Y-104940000D01*
X151271754Y-103340000D01*
X151229917Y-103117654D01*
X151098510Y-102913442D01*
X150898007Y-102776444D01*
X150660000Y-102728246D01*
X149060000Y-102728246D01*
X148837654Y-102770083D01*
X148633442Y-102901490D01*
X148496444Y-103101993D01*
X148448246Y-103340000D01*
X148448246Y-104940000D01*
X148490083Y-105162346D01*
X148621490Y-105366558D01*
X148821993Y-105503556D01*
X149052018Y-105550138D01*
X148842623Y-105690051D01*
X148539141Y-106144243D01*
X148432572Y-106680000D01*
X148539141Y-107215757D01*
X148842623Y-107669949D01*
X149261748Y-107950000D01*
X148842623Y-108230051D01*
X148715703Y-108420000D01*
X144780000Y-108420000D01*
X144473853Y-108480896D01*
X144214315Y-108654315D01*
X144040896Y-108913853D01*
X143980000Y-109220000D01*
X143980000Y-116349125D01*
X143626026Y-116702482D01*
X143418237Y-117202893D01*
X143417764Y-117744730D01*
X143040000Y-117744730D01*
X143040000Y-115959381D01*
X143159239Y-115879708D01*
X143441043Y-115457957D01*
X143540000Y-114960469D01*
X143540000Y-114909531D01*
X143441043Y-114412043D01*
X143159239Y-113990292D01*
X142754588Y-113719914D01*
X142908941Y-113655979D01*
X142972814Y-113410657D01*
X142240000Y-112677843D01*
X141507186Y-113410657D01*
X141571059Y-113655979D01*
X141744687Y-113708055D01*
X141742512Y-113708488D01*
X141320761Y-113990292D01*
X141038957Y-114412043D01*
X140940000Y-114909531D01*
X140940000Y-114960469D01*
X141038957Y-115457957D01*
X141320761Y-115879708D01*
X141440000Y-115959381D01*
X141440000Y-118889125D01*
X141086026Y-119242482D01*
X140878237Y-119742893D01*
X140877764Y-120284730D01*
X139900000Y-120284730D01*
X139900000Y-112259535D01*
X140819015Y-112259535D01*
X140875341Y-112813635D01*
X140979021Y-113063941D01*
X141224343Y-113127814D01*
X141957157Y-112395000D01*
X142522843Y-112395000D01*
X143255657Y-113127814D01*
X143500979Y-113063941D01*
X143660985Y-112530465D01*
X143604659Y-111976365D01*
X143500979Y-111726059D01*
X143255657Y-111662186D01*
X142522843Y-112395000D01*
X141957157Y-112395000D01*
X141224343Y-111662186D01*
X140979021Y-111726059D01*
X140819015Y-112259535D01*
X139900000Y-112259535D01*
X139900000Y-109827572D01*
X140840000Y-109827572D01*
X140840000Y-109882428D01*
X140946569Y-110418185D01*
X141250051Y-110872377D01*
X141614623Y-111115976D01*
X141571059Y-111134021D01*
X141507186Y-111379343D01*
X142240000Y-112112157D01*
X142972814Y-111379343D01*
X142908941Y-111134021D01*
X142860235Y-111119413D01*
X143229949Y-110872377D01*
X143533431Y-110418185D01*
X143640000Y-109882428D01*
X143640000Y-109827572D01*
X143533431Y-109291815D01*
X143229949Y-108837623D01*
X142775757Y-108534141D01*
X142240000Y-108427572D01*
X141704243Y-108534141D01*
X141250051Y-108837623D01*
X140946569Y-109291815D01*
X140840000Y-109827572D01*
X139900000Y-109827572D01*
X139900000Y-105790657D01*
X144047186Y-105790657D01*
X144111059Y-106035979D01*
X144644535Y-106195985D01*
X145198635Y-106139659D01*
X145448941Y-106035979D01*
X145512814Y-105790657D01*
X144780000Y-105057843D01*
X144047186Y-105790657D01*
X139900000Y-105790657D01*
X139900000Y-104639535D01*
X143359015Y-104639535D01*
X143415341Y-105193635D01*
X143519021Y-105443941D01*
X143764343Y-105507814D01*
X144497157Y-104775000D01*
X145062843Y-104775000D01*
X145795657Y-105507814D01*
X146040979Y-105443941D01*
X146200985Y-104910465D01*
X146144659Y-104356365D01*
X146040979Y-104106059D01*
X145795657Y-104042186D01*
X145062843Y-104775000D01*
X144497157Y-104775000D01*
X143764343Y-104042186D01*
X143519021Y-104106059D01*
X143359015Y-104639535D01*
X139900000Y-104639535D01*
X139900000Y-101435000D01*
X140828246Y-101435000D01*
X140828246Y-103035000D01*
X140870083Y-103257346D01*
X141001490Y-103461558D01*
X141201993Y-103598556D01*
X141440000Y-103646754D01*
X143040000Y-103646754D01*
X143262346Y-103604917D01*
X143466558Y-103473510D01*
X143603556Y-103273007D01*
X143651754Y-103035000D01*
X143651754Y-102866906D01*
X143860761Y-103179708D01*
X144265412Y-103450086D01*
X144111059Y-103514021D01*
X144047186Y-103759343D01*
X144780000Y-104492157D01*
X145512814Y-103759343D01*
X145448941Y-103514021D01*
X145275313Y-103461945D01*
X145277488Y-103461512D01*
X145699239Y-103179708D01*
X145981043Y-102757957D01*
X146080000Y-102260469D01*
X146080000Y-102209531D01*
X145981043Y-101712043D01*
X145699239Y-101290292D01*
X145277488Y-101008488D01*
X144780000Y-100909531D01*
X144282512Y-101008488D01*
X143860761Y-101290292D01*
X143651754Y-101603094D01*
X143651754Y-101435000D01*
X143609917Y-101212654D01*
X143478510Y-101008442D01*
X143278007Y-100871444D01*
X143040000Y-100823246D01*
X141440000Y-100823246D01*
X141217654Y-100865083D01*
X141013442Y-100996490D01*
X140876444Y-101196993D01*
X140828246Y-101435000D01*
X139900000Y-101435000D01*
X139900000Y-100530000D01*
X169980000Y-100530000D01*
X169980000Y-121720000D01*
X169980000Y-121720000D01*
G37*
X169980000Y-121720000D02*
X139900000Y-121720000D01*
X139900000Y-120284730D01*
X140877764Y-120284730D01*
X141084679Y-120785503D01*
X141467482Y-121168974D01*
X141967893Y-121376763D01*
X142509730Y-121377236D01*
X143010503Y-121170321D01*
X143393974Y-120787518D01*
X143601763Y-120287107D01*
X143602236Y-119745270D01*
X143395321Y-119244497D01*
X143040000Y-118888556D01*
X143040000Y-117744730D01*
X143417764Y-117744730D01*
X143624679Y-118245503D01*
X144007482Y-118628974D01*
X144507893Y-118836763D01*
X145049730Y-118837236D01*
X145550503Y-118630321D01*
X145933974Y-118247518D01*
X146141763Y-117747107D01*
X146142236Y-117205270D01*
X145935321Y-116704497D01*
X145580000Y-116348556D01*
X145580000Y-110020000D01*
X148715703Y-110020000D01*
X148842623Y-110209949D01*
X149261748Y-110490000D01*
X148842623Y-110770051D01*
X148539141Y-111224243D01*
X148435693Y-111744308D01*
X148239239Y-111450292D01*
X147817488Y-111168488D01*
X147320000Y-111069531D01*
X146822512Y-111168488D01*
X146400761Y-111450292D01*
X146118957Y-111872043D01*
X146020000Y-112369531D01*
X146020000Y-112420469D01*
X146118957Y-112917957D01*
X146400761Y-113339708D01*
X146822512Y-113621512D01*
X147006211Y-113658052D01*
X146584571Y-113832271D01*
X146218556Y-114197647D01*
X146020226Y-114675279D01*
X146019774Y-115192452D01*
X146217271Y-115670429D01*
X146520000Y-115973687D01*
X146520000Y-118889125D01*
X146166026Y-119242482D01*
X145958237Y-119742893D01*
X145957764Y-120284730D01*
X146164679Y-120785503D01*
X146547482Y-121168974D01*
X147047893Y-121376763D01*
X147589730Y-121377236D01*
X148090503Y-121170321D01*
X148473974Y-120787518D01*
X148681763Y-120287107D01*
X148682236Y-119745270D01*
X148475321Y-119244497D01*
X148120000Y-118888556D01*
X148120000Y-116585657D01*
X150397186Y-116585657D01*
X150461059Y-116830979D01*
X150994535Y-116990985D01*
X151548635Y-116934659D01*
X151798941Y-116830979D01*
X151862814Y-116585657D01*
X151130000Y-115852843D01*
X150397186Y-116585657D01*
X148120000Y-116585657D01*
X148120000Y-115973271D01*
X148421444Y-115672353D01*
X148520194Y-115434535D01*
X149709015Y-115434535D01*
X149765341Y-115988635D01*
X149869021Y-116238941D01*
X150114343Y-116302814D01*
X150847157Y-115570000D01*
X150114343Y-114837186D01*
X149869021Y-114901059D01*
X149709015Y-115434535D01*
X148520194Y-115434535D01*
X148619774Y-115194721D01*
X148620226Y-114677548D01*
X148569319Y-114554343D01*
X150397186Y-114554343D01*
X151130000Y-115287157D01*
X151862814Y-114554343D01*
X151798941Y-114309021D01*
X151265465Y-114149015D01*
X150711365Y-114205341D01*
X150461059Y-114309021D01*
X150397186Y-114554343D01*
X148569319Y-114554343D01*
X148422729Y-114199571D01*
X148057353Y-113833556D01*
X147634400Y-113657931D01*
X147817488Y-113621512D01*
X148239239Y-113339708D01*
X148521043Y-112917957D01*
X148620000Y-112420469D01*
X148620000Y-112416771D01*
X148842623Y-112749949D01*
X149296815Y-113053431D01*
X149832572Y-113160000D01*
X149887428Y-113160000D01*
X150423185Y-113053431D01*
X150877377Y-112749949D01*
X151180859Y-112295757D01*
X151287428Y-111760000D01*
X151180859Y-111224243D01*
X150877377Y-110770051D01*
X150458252Y-110490000D01*
X150877377Y-110209949D01*
X151180859Y-109755757D01*
X151287428Y-109220000D01*
X151180859Y-108684243D01*
X150877377Y-108230051D01*
X150458252Y-107950000D01*
X150877377Y-107669949D01*
X151004297Y-107480000D01*
X152703630Y-107480000D01*
X152870000Y-107646371D01*
X152870000Y-114554071D01*
X152725292Y-114650761D01*
X152454914Y-115055412D01*
X152390979Y-114901059D01*
X152145657Y-114837186D01*
X151412843Y-115570000D01*
X152145657Y-116302814D01*
X152390979Y-116238941D01*
X152443055Y-116065313D01*
X152443488Y-116067488D01*
X152725292Y-116489239D01*
X152870000Y-116585929D01*
X152870000Y-117073849D01*
X152569827Y-117373499D01*
X152371726Y-117850579D01*
X152371275Y-118367154D01*
X152568543Y-118844580D01*
X152933499Y-119210173D01*
X153410579Y-119408274D01*
X153927154Y-119408725D01*
X154404580Y-119211457D01*
X154770173Y-118846501D01*
X154940174Y-118437094D01*
X155108543Y-118844580D01*
X155473499Y-119210173D01*
X155950579Y-119408274D01*
X156467154Y-119408725D01*
X156944580Y-119211457D01*
X157310173Y-118846501D01*
X157508274Y-118369421D01*
X157508725Y-117852846D01*
X157311457Y-117375420D01*
X156946501Y-117009827D01*
X156469421Y-116811726D01*
X155952846Y-116811275D01*
X155475420Y-117008543D01*
X155109827Y-117373499D01*
X154939826Y-117782906D01*
X154771457Y-117375420D01*
X154470000Y-117073437D01*
X154470000Y-116585929D01*
X154614708Y-116489239D01*
X154694381Y-116370000D01*
X159385000Y-116370000D01*
X159691147Y-116309104D01*
X159950685Y-116135685D01*
X160543798Y-115542572D01*
X164335000Y-115542572D01*
X164335000Y-115597428D01*
X164441569Y-116133185D01*
X164745051Y-116587377D01*
X165199243Y-116890859D01*
X165735000Y-116997428D01*
X166270757Y-116890859D01*
X166724949Y-116587377D01*
X167028431Y-116133185D01*
X167135000Y-115597428D01*
X167135000Y-115542572D01*
X167028431Y-115006815D01*
X166724949Y-114552623D01*
X166270757Y-114249141D01*
X165735000Y-114142572D01*
X165199243Y-114249141D01*
X164745051Y-114552623D01*
X164441569Y-115006815D01*
X164335000Y-115542572D01*
X160543798Y-115542572D01*
X160585686Y-115500685D01*
X160759104Y-115241147D01*
X160820000Y-114935000D01*
X160820000Y-114068271D01*
X161121444Y-113767353D01*
X161319774Y-113289721D01*
X161320226Y-112772548D01*
X161122729Y-112294571D01*
X160757353Y-111928556D01*
X160334400Y-111752931D01*
X160517488Y-111716512D01*
X160939239Y-111434708D01*
X161035929Y-111290000D01*
X161544071Y-111290000D01*
X161640761Y-111434708D01*
X162062512Y-111716512D01*
X162560000Y-111815469D01*
X163057488Y-111716512D01*
X163479239Y-111434708D01*
X163761043Y-111012957D01*
X163860000Y-110515469D01*
X163860000Y-110464531D01*
X163761043Y-109967043D01*
X163479239Y-109545292D01*
X163057488Y-109263488D01*
X162873789Y-109226948D01*
X163295429Y-109052729D01*
X163598687Y-108750000D01*
X164323246Y-108750000D01*
X164365083Y-108972346D01*
X164496490Y-109176558D01*
X164696993Y-109313556D01*
X164935000Y-109361754D01*
X166535000Y-109361754D01*
X166757346Y-109319917D01*
X166961558Y-109188510D01*
X167098556Y-108988007D01*
X167146754Y-108750000D01*
X167146754Y-107150000D01*
X167104917Y-106927654D01*
X166973510Y-106723442D01*
X166773007Y-106586444D01*
X166535000Y-106538246D01*
X166535000Y-105551754D01*
X166757346Y-105509917D01*
X166961558Y-105378510D01*
X167098556Y-105178007D01*
X167146754Y-104940000D01*
X167146754Y-103340000D01*
X167104917Y-103117654D01*
X166973510Y-102913442D01*
X166773007Y-102776444D01*
X166535000Y-102728246D01*
X164935000Y-102728246D01*
X164712654Y-102770083D01*
X164508442Y-102901490D01*
X164371444Y-103101993D01*
X164338647Y-103263946D01*
X164029072Y-102953830D01*
X163514699Y-102740243D01*
X162957744Y-102739757D01*
X162443000Y-102952445D01*
X162048830Y-103345928D01*
X161835243Y-103860301D01*
X161834757Y-104417256D01*
X162047445Y-104932000D01*
X162440928Y-105326170D01*
X162955301Y-105539757D01*
X163512256Y-105540243D01*
X164027000Y-105327555D01*
X164337792Y-105017305D01*
X164365083Y-105162346D01*
X164496490Y-105366558D01*
X164696993Y-105503556D01*
X164935000Y-105551754D01*
X164935000Y-106538246D01*
X164712654Y-106580083D01*
X164508442Y-106711490D01*
X164371444Y-106911993D01*
X164323246Y-107150000D01*
X163598271Y-107150000D01*
X163297353Y-106848556D01*
X162819721Y-106650226D01*
X162302548Y-106649774D01*
X161824571Y-106847271D01*
X161458556Y-107212647D01*
X161260226Y-107690279D01*
X161259774Y-108207452D01*
X161457271Y-108685429D01*
X161822647Y-109051444D01*
X162245600Y-109227069D01*
X162062512Y-109263488D01*
X161640761Y-109545292D01*
X161544071Y-109690000D01*
X161035929Y-109690000D01*
X160939239Y-109545292D01*
X160517488Y-109263488D01*
X160020000Y-109164531D01*
X159858105Y-109196734D01*
X159315685Y-108654315D01*
X159056147Y-108480896D01*
X158750000Y-108420000D01*
X158624297Y-108420000D01*
X158497377Y-108230051D01*
X158143325Y-107993480D01*
X158427286Y-107843053D01*
X158488837Y-107768618D01*
X159214224Y-107768618D01*
X159290572Y-108024232D01*
X159860511Y-108201048D01*
X160454732Y-108146299D01*
X160749428Y-108024232D01*
X160825776Y-107768618D01*
X160020000Y-106962843D01*
X159214224Y-107768618D01*
X158488837Y-107768618D01*
X158764051Y-107435797D01*
X158931382Y-107485776D01*
X159737157Y-106680000D01*
X160302843Y-106680000D01*
X161108618Y-107485776D01*
X161364232Y-107409428D01*
X161541048Y-106839489D01*
X161486299Y-106245268D01*
X161364232Y-105950572D01*
X161108618Y-105874224D01*
X160302843Y-106680000D01*
X159737157Y-106680000D01*
X158931382Y-105874224D01*
X158764051Y-105924203D01*
X158427286Y-105516947D01*
X158143325Y-105366520D01*
X158497377Y-105129949D01*
X158744742Y-104759742D01*
X158832445Y-104972000D01*
X159225928Y-105366170D01*
X159275361Y-105386696D01*
X159214224Y-105591382D01*
X160020000Y-106397157D01*
X160825776Y-105591382D01*
X160764753Y-105387077D01*
X160812000Y-105367555D01*
X161206170Y-104974072D01*
X161419757Y-104459699D01*
X161420243Y-103902744D01*
X161207555Y-103388000D01*
X160814072Y-102993830D01*
X160299699Y-102780243D01*
X159742744Y-102779757D01*
X159228000Y-102992445D01*
X158833830Y-103385928D01*
X158765285Y-103551003D01*
X158497377Y-103150051D01*
X158043185Y-102846569D01*
X157507428Y-102740000D01*
X157452572Y-102740000D01*
X156916815Y-102846569D01*
X156462623Y-103150051D01*
X156159141Y-103604243D01*
X156052572Y-104140000D01*
X156159141Y-104675757D01*
X156462623Y-105129949D01*
X156816675Y-105366520D01*
X156532714Y-105516947D01*
X156159741Y-105967990D01*
X156042982Y-106249906D01*
X156170181Y-106480000D01*
X157280000Y-106480000D01*
X157280000Y-106460000D01*
X157680000Y-106460000D01*
X157680000Y-106480000D01*
X157700000Y-106480000D01*
X157700000Y-106880000D01*
X157680000Y-106880000D01*
X157680000Y-106900000D01*
X157280000Y-106900000D01*
X157280000Y-106880000D01*
X156170181Y-106880000D01*
X156042982Y-107110094D01*
X156159741Y-107392010D01*
X156532714Y-107843053D01*
X156816675Y-107993480D01*
X156462623Y-108230051D01*
X156159141Y-108684243D01*
X156052572Y-109220000D01*
X156159141Y-109755757D01*
X156462623Y-110209949D01*
X156881748Y-110490000D01*
X156462623Y-110770051D01*
X156159141Y-111224243D01*
X156052572Y-111760000D01*
X156159141Y-112295757D01*
X156462623Y-112749949D01*
X156916815Y-113053431D01*
X157452572Y-113160000D01*
X157507428Y-113160000D01*
X158043185Y-113053431D01*
X158497377Y-112749949D01*
X158800859Y-112295757D01*
X158907428Y-111760000D01*
X158800859Y-111224243D01*
X158497377Y-110770051D01*
X158078252Y-110490000D01*
X158497377Y-110209949D01*
X158541918Y-110143288D01*
X158743752Y-110345122D01*
X158720000Y-110464531D01*
X158720000Y-110515469D01*
X158818957Y-111012957D01*
X159100761Y-111434708D01*
X159522512Y-111716512D01*
X159706211Y-111753052D01*
X159284571Y-111927271D01*
X158918556Y-112292647D01*
X158720226Y-112770279D01*
X158719774Y-113287452D01*
X158917271Y-113765429D01*
X159220000Y-114068687D01*
X159220000Y-114603629D01*
X159053630Y-114770000D01*
X154694381Y-114770000D01*
X154614708Y-114650761D01*
X154470000Y-114554071D01*
X154470000Y-107315000D01*
X154409104Y-107008853D01*
X154323007Y-106880000D01*
X154235686Y-106749315D01*
X153600685Y-106114315D01*
X153341147Y-105940896D01*
X153035000Y-105880000D01*
X151004297Y-105880000D01*
X150877377Y-105690051D01*
X150668116Y-105550227D01*
X150882346Y-105509917D01*
X151086558Y-105378510D01*
X151223556Y-105178007D01*
X151271754Y-104940000D01*
X151271754Y-103340000D01*
X151229917Y-103117654D01*
X151098510Y-102913442D01*
X150898007Y-102776444D01*
X150660000Y-102728246D01*
X149060000Y-102728246D01*
X148837654Y-102770083D01*
X148633442Y-102901490D01*
X148496444Y-103101993D01*
X148448246Y-103340000D01*
X148448246Y-104940000D01*
X148490083Y-105162346D01*
X148621490Y-105366558D01*
X148821993Y-105503556D01*
X149052018Y-105550138D01*
X148842623Y-105690051D01*
X148539141Y-106144243D01*
X148432572Y-106680000D01*
X148539141Y-107215757D01*
X148842623Y-107669949D01*
X149261748Y-107950000D01*
X148842623Y-108230051D01*
X148715703Y-108420000D01*
X144780000Y-108420000D01*
X144473853Y-108480896D01*
X144214315Y-108654315D01*
X144040896Y-108913853D01*
X143980000Y-109220000D01*
X143980000Y-116349125D01*
X143626026Y-116702482D01*
X143418237Y-117202893D01*
X143417764Y-117744730D01*
X143040000Y-117744730D01*
X143040000Y-115959381D01*
X143159239Y-115879708D01*
X143441043Y-115457957D01*
X143540000Y-114960469D01*
X143540000Y-114909531D01*
X143441043Y-114412043D01*
X143159239Y-113990292D01*
X142754588Y-113719914D01*
X142908941Y-113655979D01*
X142972814Y-113410657D01*
X142240000Y-112677843D01*
X141507186Y-113410657D01*
X141571059Y-113655979D01*
X141744687Y-113708055D01*
X141742512Y-113708488D01*
X141320761Y-113990292D01*
X141038957Y-114412043D01*
X140940000Y-114909531D01*
X140940000Y-114960469D01*
X141038957Y-115457957D01*
X141320761Y-115879708D01*
X141440000Y-115959381D01*
X141440000Y-118889125D01*
X141086026Y-119242482D01*
X140878237Y-119742893D01*
X140877764Y-120284730D01*
X139900000Y-120284730D01*
X139900000Y-112259535D01*
X140819015Y-112259535D01*
X140875341Y-112813635D01*
X140979021Y-113063941D01*
X141224343Y-113127814D01*
X141957157Y-112395000D01*
X142522843Y-112395000D01*
X143255657Y-113127814D01*
X143500979Y-113063941D01*
X143660985Y-112530465D01*
X143604659Y-111976365D01*
X143500979Y-111726059D01*
X143255657Y-111662186D01*
X142522843Y-112395000D01*
X141957157Y-112395000D01*
X141224343Y-111662186D01*
X140979021Y-111726059D01*
X140819015Y-112259535D01*
X139900000Y-112259535D01*
X139900000Y-109827572D01*
X140840000Y-109827572D01*
X140840000Y-109882428D01*
X140946569Y-110418185D01*
X141250051Y-110872377D01*
X141614623Y-111115976D01*
X141571059Y-111134021D01*
X141507186Y-111379343D01*
X142240000Y-112112157D01*
X142972814Y-111379343D01*
X142908941Y-111134021D01*
X142860235Y-111119413D01*
X143229949Y-110872377D01*
X143533431Y-110418185D01*
X143640000Y-109882428D01*
X143640000Y-109827572D01*
X143533431Y-109291815D01*
X143229949Y-108837623D01*
X142775757Y-108534141D01*
X142240000Y-108427572D01*
X141704243Y-108534141D01*
X141250051Y-108837623D01*
X140946569Y-109291815D01*
X140840000Y-109827572D01*
X139900000Y-109827572D01*
X139900000Y-105790657D01*
X144047186Y-105790657D01*
X144111059Y-106035979D01*
X144644535Y-106195985D01*
X145198635Y-106139659D01*
X145448941Y-106035979D01*
X145512814Y-105790657D01*
X144780000Y-105057843D01*
X144047186Y-105790657D01*
X139900000Y-105790657D01*
X139900000Y-104639535D01*
X143359015Y-104639535D01*
X143415341Y-105193635D01*
X143519021Y-105443941D01*
X143764343Y-105507814D01*
X144497157Y-104775000D01*
X145062843Y-104775000D01*
X145795657Y-105507814D01*
X146040979Y-105443941D01*
X146200985Y-104910465D01*
X146144659Y-104356365D01*
X146040979Y-104106059D01*
X145795657Y-104042186D01*
X145062843Y-104775000D01*
X144497157Y-104775000D01*
X143764343Y-104042186D01*
X143519021Y-104106059D01*
X143359015Y-104639535D01*
X139900000Y-104639535D01*
X139900000Y-101435000D01*
X140828246Y-101435000D01*
X140828246Y-103035000D01*
X140870083Y-103257346D01*
X141001490Y-103461558D01*
X141201993Y-103598556D01*
X141440000Y-103646754D01*
X143040000Y-103646754D01*
X143262346Y-103604917D01*
X143466558Y-103473510D01*
X143603556Y-103273007D01*
X143651754Y-103035000D01*
X143651754Y-102866906D01*
X143860761Y-103179708D01*
X144265412Y-103450086D01*
X144111059Y-103514021D01*
X144047186Y-103759343D01*
X144780000Y-104492157D01*
X145512814Y-103759343D01*
X145448941Y-103514021D01*
X145275313Y-103461945D01*
X145277488Y-103461512D01*
X145699239Y-103179708D01*
X145981043Y-102757957D01*
X146080000Y-102260469D01*
X146080000Y-102209531D01*
X145981043Y-101712043D01*
X145699239Y-101290292D01*
X145277488Y-101008488D01*
X144780000Y-100909531D01*
X144282512Y-101008488D01*
X143860761Y-101290292D01*
X143651754Y-101603094D01*
X143651754Y-101435000D01*
X143609917Y-101212654D01*
X143478510Y-101008442D01*
X143278007Y-100871444D01*
X143040000Y-100823246D01*
X141440000Y-100823246D01*
X141217654Y-100865083D01*
X141013442Y-100996490D01*
X140876444Y-101196993D01*
X140828246Y-101435000D01*
X139900000Y-101435000D01*
X139900000Y-100530000D01*
X169980000Y-100530000D01*
X169980000Y-121720000D01*
D25*
G36*
X169430000Y-79687638D02*
X168774462Y-79415435D01*
X167779901Y-79414567D01*
X166860714Y-79794367D01*
X166156839Y-80497015D01*
X165775435Y-81415538D01*
X165774567Y-82410099D01*
X166154367Y-83329286D01*
X166857015Y-84033161D01*
X167775538Y-84414565D01*
X168770099Y-84415433D01*
X169430000Y-84142768D01*
X169430000Y-98310000D01*
X162040000Y-98310000D01*
X162040000Y-96597488D01*
X162069617Y-96577699D01*
X162503286Y-95928667D01*
X162655570Y-95163082D01*
X162655570Y-94066918D01*
X163734430Y-94066918D01*
X163734430Y-95163082D01*
X163886714Y-95928667D01*
X164320383Y-96577699D01*
X164969415Y-97011368D01*
X165735000Y-97163652D01*
X166500585Y-97011368D01*
X167149617Y-96577699D01*
X167583286Y-95928667D01*
X167735570Y-95163082D01*
X167735570Y-94066918D01*
X167583286Y-93301333D01*
X167149617Y-92652301D01*
X166500585Y-92218632D01*
X165735000Y-92066348D01*
X164969415Y-92218632D01*
X164320383Y-92652301D01*
X163886714Y-93301333D01*
X163734430Y-94066918D01*
X162655570Y-94066918D01*
X162503286Y-93301333D01*
X162069617Y-92652301D01*
X162040000Y-92632512D01*
X162040000Y-73140000D01*
X169430000Y-73140000D01*
X169430000Y-79687638D01*
X169430000Y-79687638D01*
G37*
X169430000Y-79687638D02*
X168774462Y-79415435D01*
X167779901Y-79414567D01*
X166860714Y-79794367D01*
X166156839Y-80497015D01*
X165775435Y-81415538D01*
X165774567Y-82410099D01*
X166154367Y-83329286D01*
X166857015Y-84033161D01*
X167775538Y-84414565D01*
X168770099Y-84415433D01*
X169430000Y-84142768D01*
X169430000Y-98310000D01*
X162040000Y-98310000D01*
X162040000Y-96597488D01*
X162069617Y-96577699D01*
X162503286Y-95928667D01*
X162655570Y-95163082D01*
X162655570Y-94066918D01*
X163734430Y-94066918D01*
X163734430Y-95163082D01*
X163886714Y-95928667D01*
X164320383Y-96577699D01*
X164969415Y-97011368D01*
X165735000Y-97163652D01*
X166500585Y-97011368D01*
X167149617Y-96577699D01*
X167583286Y-95928667D01*
X167735570Y-95163082D01*
X167735570Y-94066918D01*
X167583286Y-93301333D01*
X167149617Y-92652301D01*
X166500585Y-92218632D01*
X165735000Y-92066348D01*
X164969415Y-92218632D01*
X164320383Y-92652301D01*
X163886714Y-93301333D01*
X163734430Y-94066918D01*
X162655570Y-94066918D01*
X162503286Y-93301333D01*
X162069617Y-92652301D01*
X162040000Y-92632512D01*
X162040000Y-73140000D01*
X169430000Y-73140000D01*
X169430000Y-79687638D01*
G36*
X145590462Y-73695633D02*
X145589420Y-74889131D01*
X146045190Y-75992178D01*
X146555226Y-76503105D01*
X146340392Y-77020484D01*
X146339610Y-77915589D01*
X146681431Y-78742858D01*
X147313813Y-79376345D01*
X148140484Y-79719608D01*
X149035589Y-79720390D01*
X149110000Y-79689644D01*
X149110000Y-92632512D01*
X149080383Y-92652301D01*
X148646714Y-93301333D01*
X148494430Y-94066918D01*
X148494430Y-95163082D01*
X148646714Y-95928667D01*
X149080383Y-96577699D01*
X149110000Y-96597488D01*
X149110000Y-98310000D01*
X140450000Y-98310000D01*
X140450000Y-94066918D01*
X143414430Y-94066918D01*
X143414430Y-95163082D01*
X143566714Y-95928667D01*
X144000383Y-96577699D01*
X144649415Y-97011368D01*
X145415000Y-97163652D01*
X146180585Y-97011368D01*
X146829617Y-96577699D01*
X147263286Y-95928667D01*
X147415570Y-95163082D01*
X147415570Y-94066918D01*
X147263286Y-93301333D01*
X146829617Y-92652301D01*
X146180585Y-92218632D01*
X145415000Y-92066348D01*
X144649415Y-92218632D01*
X144000383Y-92652301D01*
X143566714Y-93301333D01*
X143414430Y-94066918D01*
X140450000Y-94066918D01*
X140450000Y-84142362D01*
X141105538Y-84414565D01*
X142100099Y-84415433D01*
X143019286Y-84035633D01*
X143723161Y-83332985D01*
X144104565Y-82414462D01*
X144105433Y-81419901D01*
X143725633Y-80500714D01*
X143022985Y-79796839D01*
X142104462Y-79415435D01*
X141109901Y-79414567D01*
X140450000Y-79687232D01*
X140450000Y-73140000D01*
X145821181Y-73140000D01*
X145590462Y-73695633D01*
X145590462Y-73695633D01*
G37*
X145590462Y-73695633D02*
X145589420Y-74889131D01*
X146045190Y-75992178D01*
X146555226Y-76503105D01*
X146340392Y-77020484D01*
X146339610Y-77915589D01*
X146681431Y-78742858D01*
X147313813Y-79376345D01*
X148140484Y-79719608D01*
X149035589Y-79720390D01*
X149110000Y-79689644D01*
X149110000Y-92632512D01*
X149080383Y-92652301D01*
X148646714Y-93301333D01*
X148494430Y-94066918D01*
X148494430Y-95163082D01*
X148646714Y-95928667D01*
X149080383Y-96577699D01*
X149110000Y-96597488D01*
X149110000Y-98310000D01*
X140450000Y-98310000D01*
X140450000Y-94066918D01*
X143414430Y-94066918D01*
X143414430Y-95163082D01*
X143566714Y-95928667D01*
X144000383Y-96577699D01*
X144649415Y-97011368D01*
X145415000Y-97163652D01*
X146180585Y-97011368D01*
X146829617Y-96577699D01*
X147263286Y-95928667D01*
X147415570Y-95163082D01*
X147415570Y-94066918D01*
X147263286Y-93301333D01*
X146829617Y-92652301D01*
X146180585Y-92218632D01*
X145415000Y-92066348D01*
X144649415Y-92218632D01*
X144000383Y-92652301D01*
X143566714Y-93301333D01*
X143414430Y-94066918D01*
X140450000Y-94066918D01*
X140450000Y-84142362D01*
X141105538Y-84414565D01*
X142100099Y-84415433D01*
X143019286Y-84035633D01*
X143723161Y-83332985D01*
X144104565Y-82414462D01*
X144105433Y-81419901D01*
X143725633Y-80500714D01*
X143022985Y-79796839D01*
X142104462Y-79415435D01*
X141109901Y-79414567D01*
X140450000Y-79687232D01*
X140450000Y-73140000D01*
X145821181Y-73140000D01*
X145590462Y-73695633D01*
G36*
X159270000Y-88785000D02*
X151880000Y-88785000D01*
X151880000Y-73140000D01*
X159270000Y-73140000D01*
X159270000Y-88785000D01*
X159270000Y-88785000D01*
G37*
X159270000Y-88785000D02*
X151880000Y-88785000D01*
X151880000Y-73140000D01*
X159270000Y-73140000D01*
X159270000Y-88785000D01*
M02*
