M48
;DRILL file {KiCad 4.0.4-stable} date Saturday, 28 January 2017 'PMt' 01:34:06 PM
;FORMAT={-:-/ absolute / metric / decimal}
FMAT,2
METRIC,TZ
T1C0.600
T2C0.700
T3C0.800
T4C0.813
T5C1.000
T6C1.001
T7C1.200
T8C1.501
%
G90
G05
M71
T1
X148.035Y-81.685
X148.035Y-85.495
X153.035Y-83.185
X153.035Y-86.995
T2
X142.24Y-112.395
X142.24Y-114.935
X144.78Y-102.235
X144.78Y-104.775
X147.32Y-112.395
X147.32Y-114.935
X151.13Y-115.57
X153.67Y-115.57
X160.02Y-110.49
X160.02Y-113.03
X162.56Y-107.95
X162.56Y-110.49
T3
X142.24Y-102.235
X142.24Y-109.855
X149.86Y-104.14
X149.86Y-106.68
X149.86Y-109.22
X149.86Y-111.76
X157.48Y-104.14
X157.48Y-106.68
X157.48Y-109.22
X157.48Y-111.76
X160.02Y-104.18
X160.02Y-106.68
X163.235Y-104.14
X165.735Y-104.14
X165.735Y-107.95
X165.735Y-115.57
T4
X142.24Y-120.015
X144.78Y-117.475
X147.32Y-120.015
X153.67Y-118.11
X156.21Y-118.11
T5
X148.59Y-77.47
X158.59Y-78.97
T6
X145.415Y-94.615
X147.955Y-94.615
X150.495Y-94.615
X160.655Y-94.615
X163.195Y-94.615
X165.735Y-94.615
T7
X156.845Y-86.995
X167.005Y-86.995
T8
X143.51Y-74.295
X148.59Y-74.295
X158.115Y-74.295
X163.195Y-74.295
T0
M30
