G04 #@! TF.FileFunction,Legend,Top*
%FSLAX46Y46*%
G04 Gerber Fmt 4.6, Leading zero omitted, Abs format (unit mm)*
G04 Created by KiCad (PCBNEW 4.0.4-stable) date Saturday, 28 January 2017 'PMt' 01:33:58 PM*
%MOMM*%
%LPD*%
G01*
G04 APERTURE LIST*
%ADD10C,0.100000*%
%ADD11C,0.300000*%
%ADD12C,0.120000*%
%ADD13C,0.150000*%
G04 APERTURE END LIST*
D10*
D11*
X148654287Y-65138571D02*
X149582858Y-65138571D01*
X149082858Y-65710000D01*
X149297144Y-65710000D01*
X149440001Y-65781429D01*
X149511430Y-65852857D01*
X149582858Y-65995714D01*
X149582858Y-66352857D01*
X149511430Y-66495714D01*
X149440001Y-66567143D01*
X149297144Y-66638571D01*
X148868572Y-66638571D01*
X148725715Y-66567143D01*
X148654287Y-66495714D01*
X150082858Y-65138571D02*
X151011429Y-65138571D01*
X150511429Y-65710000D01*
X150725715Y-65710000D01*
X150868572Y-65781429D01*
X150940001Y-65852857D01*
X151011429Y-65995714D01*
X151011429Y-66352857D01*
X150940001Y-66495714D01*
X150868572Y-66567143D01*
X150725715Y-66638571D01*
X150297143Y-66638571D01*
X150154286Y-66567143D01*
X150082858Y-66495714D01*
X151654286Y-66495714D02*
X151725714Y-66567143D01*
X151654286Y-66638571D01*
X151582857Y-66567143D01*
X151654286Y-66495714D01*
X151654286Y-66638571D01*
X152654286Y-65138571D02*
X152797143Y-65138571D01*
X152940000Y-65210000D01*
X153011429Y-65281429D01*
X153082858Y-65424286D01*
X153154286Y-65710000D01*
X153154286Y-66067143D01*
X153082858Y-66352857D01*
X153011429Y-66495714D01*
X152940000Y-66567143D01*
X152797143Y-66638571D01*
X152654286Y-66638571D01*
X152511429Y-66567143D01*
X152440000Y-66495714D01*
X152368572Y-66352857D01*
X152297143Y-66067143D01*
X152297143Y-65710000D01*
X152368572Y-65424286D01*
X152440000Y-65281429D01*
X152511429Y-65210000D01*
X152654286Y-65138571D01*
X153725714Y-65281429D02*
X153797143Y-65210000D01*
X153940000Y-65138571D01*
X154297143Y-65138571D01*
X154440000Y-65210000D01*
X154511429Y-65281429D01*
X154582857Y-65424286D01*
X154582857Y-65567143D01*
X154511429Y-65781429D01*
X153654286Y-66638571D01*
X154582857Y-66638571D01*
X155511428Y-65138571D02*
X155654285Y-65138571D01*
X155797142Y-65210000D01*
X155868571Y-65281429D01*
X155940000Y-65424286D01*
X156011428Y-65710000D01*
X156011428Y-66067143D01*
X155940000Y-66352857D01*
X155868571Y-66495714D01*
X155797142Y-66567143D01*
X155654285Y-66638571D01*
X155511428Y-66638571D01*
X155368571Y-66567143D01*
X155297142Y-66495714D01*
X155225714Y-66352857D01*
X155154285Y-66067143D01*
X155154285Y-65710000D01*
X155225714Y-65424286D01*
X155297142Y-65281429D01*
X155368571Y-65210000D01*
X155511428Y-65138571D01*
X157797142Y-66638571D02*
X157797142Y-65638571D01*
X157797142Y-65781429D02*
X157868570Y-65710000D01*
X158011428Y-65638571D01*
X158225713Y-65638571D01*
X158368570Y-65710000D01*
X158439999Y-65852857D01*
X158439999Y-66638571D01*
X158439999Y-65852857D02*
X158511428Y-65710000D01*
X158654285Y-65638571D01*
X158868570Y-65638571D01*
X159011428Y-65710000D01*
X159082856Y-65852857D01*
X159082856Y-66638571D01*
X159797142Y-66638571D02*
X159797142Y-65638571D01*
X159797142Y-65781429D02*
X159868570Y-65710000D01*
X160011428Y-65638571D01*
X160225713Y-65638571D01*
X160368570Y-65710000D01*
X160439999Y-65852857D01*
X160439999Y-66638571D01*
X160439999Y-65852857D02*
X160511428Y-65710000D01*
X160654285Y-65638571D01*
X160868570Y-65638571D01*
X161011428Y-65710000D01*
X161082856Y-65852857D01*
X161082856Y-66638571D01*
X138430000Y-67310000D02*
X171450000Y-67310000D01*
X138430000Y-68580000D02*
X138430000Y-64610000D01*
X171450000Y-68580000D02*
X171450000Y-64610000D01*
X171450000Y-67310000D02*
X170323496Y-67896421D01*
X171450000Y-67310000D02*
X170323496Y-66723579D01*
X138430000Y-67310000D02*
X139556504Y-67896421D01*
X138430000Y-67310000D02*
X139556504Y-66723579D01*
X178066429Y-91726430D02*
X178066429Y-91012144D01*
X177352143Y-90940715D01*
X177423571Y-91012144D01*
X177495000Y-91155001D01*
X177495000Y-91512144D01*
X177423571Y-91655001D01*
X177352143Y-91726430D01*
X177209286Y-91797858D01*
X176852143Y-91797858D01*
X176709286Y-91726430D01*
X176637857Y-91655001D01*
X176566429Y-91512144D01*
X176566429Y-91155001D01*
X176637857Y-91012144D01*
X176709286Y-90940715D01*
X177923571Y-92369286D02*
X177995000Y-92440715D01*
X178066429Y-92583572D01*
X178066429Y-92940715D01*
X177995000Y-93083572D01*
X177923571Y-93155001D01*
X177780714Y-93226429D01*
X177637857Y-93226429D01*
X177423571Y-93155001D01*
X176566429Y-92297858D01*
X176566429Y-93226429D01*
X176709286Y-93869286D02*
X176637857Y-93940714D01*
X176566429Y-93869286D01*
X176637857Y-93797857D01*
X176709286Y-93869286D01*
X176566429Y-93869286D01*
X178066429Y-94869286D02*
X178066429Y-95012143D01*
X177995000Y-95155000D01*
X177923571Y-95226429D01*
X177780714Y-95297858D01*
X177495000Y-95369286D01*
X177137857Y-95369286D01*
X176852143Y-95297858D01*
X176709286Y-95226429D01*
X176637857Y-95155000D01*
X176566429Y-95012143D01*
X176566429Y-94869286D01*
X176637857Y-94726429D01*
X176709286Y-94655000D01*
X176852143Y-94583572D01*
X177137857Y-94512143D01*
X177495000Y-94512143D01*
X177780714Y-94583572D01*
X177923571Y-94655000D01*
X177995000Y-94726429D01*
X178066429Y-94869286D01*
X178066429Y-95869286D02*
X178066429Y-96869286D01*
X176566429Y-96226429D01*
X178066429Y-97726428D02*
X178066429Y-97869285D01*
X177995000Y-98012142D01*
X177923571Y-98083571D01*
X177780714Y-98155000D01*
X177495000Y-98226428D01*
X177137857Y-98226428D01*
X176852143Y-98155000D01*
X176709286Y-98083571D01*
X176637857Y-98012142D01*
X176566429Y-97869285D01*
X176566429Y-97726428D01*
X176637857Y-97583571D01*
X176709286Y-97512142D01*
X176852143Y-97440714D01*
X177137857Y-97369285D01*
X177495000Y-97369285D01*
X177780714Y-97440714D01*
X177923571Y-97512142D01*
X177995000Y-97583571D01*
X178066429Y-97726428D01*
X176566429Y-100012142D02*
X177566429Y-100012142D01*
X177423571Y-100012142D02*
X177495000Y-100083570D01*
X177566429Y-100226428D01*
X177566429Y-100440713D01*
X177495000Y-100583570D01*
X177352143Y-100654999D01*
X176566429Y-100654999D01*
X177352143Y-100654999D02*
X177495000Y-100726428D01*
X177566429Y-100869285D01*
X177566429Y-101083570D01*
X177495000Y-101226428D01*
X177352143Y-101297856D01*
X176566429Y-101297856D01*
X176566429Y-102012142D02*
X177566429Y-102012142D01*
X177423571Y-102012142D02*
X177495000Y-102083570D01*
X177566429Y-102226428D01*
X177566429Y-102440713D01*
X177495000Y-102583570D01*
X177352143Y-102654999D01*
X176566429Y-102654999D01*
X177352143Y-102654999D02*
X177495000Y-102726428D01*
X177566429Y-102869285D01*
X177566429Y-103083570D01*
X177495000Y-103226428D01*
X177352143Y-103297856D01*
X176566429Y-103297856D01*
X175895000Y-71120000D02*
X175895000Y-123190000D01*
X173990000Y-71120000D02*
X178595000Y-71120000D01*
X173990000Y-123190000D02*
X178595000Y-123190000D01*
X175895000Y-123190000D02*
X175308579Y-122063496D01*
X175895000Y-123190000D02*
X176481421Y-122063496D01*
X175895000Y-71120000D02*
X175308579Y-72246504D01*
X175895000Y-71120000D02*
X176481421Y-72246504D01*
X151193572Y-73132143D02*
X152336429Y-73132143D01*
X151765000Y-73703571D02*
X151765000Y-72560714D01*
X155003572Y-73132143D02*
X156146429Y-73132143D01*
X155575000Y-73703571D02*
X155575000Y-72560714D01*
D12*
X162088137Y-105121400D02*
G75*
G03X166882436Y-105120000I2396863J981400D01*
G01*
X162088137Y-103158600D02*
G75*
G02X166882436Y-103160000I2396863J-981400D01*
G01*
X162088137Y-103158600D02*
G75*
G03X162087564Y-105120000I2396863J-981400D01*
G01*
X164485000Y-106690000D02*
X164485000Y-101590000D01*
X164445000Y-106690000D02*
X164445000Y-101590000D01*
X164405000Y-106689000D02*
X164405000Y-101591000D01*
X164365000Y-106688000D02*
X164365000Y-101592000D01*
X164325000Y-106686000D02*
X164325000Y-101594000D01*
X164285000Y-106683000D02*
X164285000Y-101597000D01*
X164245000Y-106679000D02*
X164245000Y-101601000D01*
X164205000Y-106675000D02*
X164205000Y-105120000D01*
X164205000Y-103160000D02*
X164205000Y-101605000D01*
X164165000Y-106671000D02*
X164165000Y-105120000D01*
X164165000Y-103160000D02*
X164165000Y-101609000D01*
X164125000Y-106665000D02*
X164125000Y-105120000D01*
X164125000Y-103160000D02*
X164125000Y-101615000D01*
X164085000Y-106659000D02*
X164085000Y-105120000D01*
X164085000Y-103160000D02*
X164085000Y-101621000D01*
X164045000Y-106653000D02*
X164045000Y-105120000D01*
X164045000Y-103160000D02*
X164045000Y-101627000D01*
X164005000Y-106646000D02*
X164005000Y-105120000D01*
X164005000Y-103160000D02*
X164005000Y-101634000D01*
X163965000Y-106638000D02*
X163965000Y-105120000D01*
X163965000Y-103160000D02*
X163965000Y-101642000D01*
X163925000Y-106629000D02*
X163925000Y-105120000D01*
X163925000Y-103160000D02*
X163925000Y-101651000D01*
X163885000Y-106620000D02*
X163885000Y-105120000D01*
X163885000Y-103160000D02*
X163885000Y-101660000D01*
X163845000Y-106610000D02*
X163845000Y-105120000D01*
X163845000Y-103160000D02*
X163845000Y-101670000D01*
X163805000Y-106600000D02*
X163805000Y-105120000D01*
X163805000Y-103160000D02*
X163805000Y-101680000D01*
X163764000Y-106588000D02*
X163764000Y-105120000D01*
X163764000Y-103160000D02*
X163764000Y-101692000D01*
X163724000Y-106576000D02*
X163724000Y-105120000D01*
X163724000Y-103160000D02*
X163724000Y-101704000D01*
X163684000Y-106564000D02*
X163684000Y-105120000D01*
X163684000Y-103160000D02*
X163684000Y-101716000D01*
X163644000Y-106550000D02*
X163644000Y-105120000D01*
X163644000Y-103160000D02*
X163644000Y-101730000D01*
X163604000Y-106536000D02*
X163604000Y-105120000D01*
X163604000Y-103160000D02*
X163604000Y-101744000D01*
X163564000Y-106522000D02*
X163564000Y-105120000D01*
X163564000Y-103160000D02*
X163564000Y-101758000D01*
X163524000Y-106506000D02*
X163524000Y-105120000D01*
X163524000Y-103160000D02*
X163524000Y-101774000D01*
X163484000Y-106490000D02*
X163484000Y-105120000D01*
X163484000Y-103160000D02*
X163484000Y-101790000D01*
X163444000Y-106473000D02*
X163444000Y-105120000D01*
X163444000Y-103160000D02*
X163444000Y-101807000D01*
X163404000Y-106455000D02*
X163404000Y-105120000D01*
X163404000Y-103160000D02*
X163404000Y-101825000D01*
X163364000Y-106436000D02*
X163364000Y-105120000D01*
X163364000Y-103160000D02*
X163364000Y-101844000D01*
X163324000Y-106416000D02*
X163324000Y-105120000D01*
X163324000Y-103160000D02*
X163324000Y-101864000D01*
X163284000Y-106396000D02*
X163284000Y-105120000D01*
X163284000Y-103160000D02*
X163284000Y-101884000D01*
X163244000Y-106374000D02*
X163244000Y-105120000D01*
X163244000Y-103160000D02*
X163244000Y-101906000D01*
X163204000Y-106352000D02*
X163204000Y-105120000D01*
X163204000Y-103160000D02*
X163204000Y-101928000D01*
X163164000Y-106329000D02*
X163164000Y-105120000D01*
X163164000Y-103160000D02*
X163164000Y-101951000D01*
X163124000Y-106305000D02*
X163124000Y-105120000D01*
X163124000Y-103160000D02*
X163124000Y-101975000D01*
X163084000Y-106280000D02*
X163084000Y-105120000D01*
X163084000Y-103160000D02*
X163084000Y-102000000D01*
X163044000Y-106253000D02*
X163044000Y-105120000D01*
X163044000Y-103160000D02*
X163044000Y-102027000D01*
X163004000Y-106226000D02*
X163004000Y-105120000D01*
X163004000Y-103160000D02*
X163004000Y-102054000D01*
X162964000Y-106198000D02*
X162964000Y-105120000D01*
X162964000Y-103160000D02*
X162964000Y-102082000D01*
X162924000Y-106168000D02*
X162924000Y-105120000D01*
X162924000Y-103160000D02*
X162924000Y-102112000D01*
X162884000Y-106137000D02*
X162884000Y-105120000D01*
X162884000Y-103160000D02*
X162884000Y-102143000D01*
X162844000Y-106105000D02*
X162844000Y-105120000D01*
X162844000Y-103160000D02*
X162844000Y-102175000D01*
X162804000Y-106072000D02*
X162804000Y-105120000D01*
X162804000Y-103160000D02*
X162804000Y-102208000D01*
X162764000Y-106037000D02*
X162764000Y-105120000D01*
X162764000Y-103160000D02*
X162764000Y-102243000D01*
X162724000Y-106001000D02*
X162724000Y-105120000D01*
X162724000Y-103160000D02*
X162724000Y-102279000D01*
X162684000Y-105963000D02*
X162684000Y-105120000D01*
X162684000Y-103160000D02*
X162684000Y-102317000D01*
X162644000Y-105923000D02*
X162644000Y-105120000D01*
X162644000Y-103160000D02*
X162644000Y-102357000D01*
X162604000Y-105882000D02*
X162604000Y-105120000D01*
X162604000Y-103160000D02*
X162604000Y-102398000D01*
X162564000Y-105839000D02*
X162564000Y-105120000D01*
X162564000Y-103160000D02*
X162564000Y-102441000D01*
X162524000Y-105794000D02*
X162524000Y-105120000D01*
X162524000Y-103160000D02*
X162524000Y-102486000D01*
X162484000Y-105746000D02*
X162484000Y-105120000D01*
X162484000Y-103160000D02*
X162484000Y-102534000D01*
X162444000Y-105696000D02*
X162444000Y-105120000D01*
X162444000Y-103160000D02*
X162444000Y-102584000D01*
X162404000Y-105644000D02*
X162404000Y-105120000D01*
X162404000Y-103160000D02*
X162404000Y-102636000D01*
X162364000Y-105588000D02*
X162364000Y-105120000D01*
X162364000Y-103160000D02*
X162364000Y-102692000D01*
X162324000Y-105530000D02*
X162324000Y-105120000D01*
X162324000Y-103160000D02*
X162324000Y-102750000D01*
X162284000Y-105467000D02*
X162284000Y-105120000D01*
X162284000Y-103160000D02*
X162284000Y-102813000D01*
X162244000Y-105401000D02*
X162244000Y-102879000D01*
X162204000Y-105329000D02*
X162204000Y-102951000D01*
X162164000Y-105252000D02*
X162164000Y-103028000D01*
X162124000Y-105168000D02*
X162124000Y-103112000D01*
X162084000Y-105074000D02*
X162084000Y-103206000D01*
X162044000Y-104969000D02*
X162044000Y-103311000D01*
X162004000Y-104847000D02*
X162004000Y-103433000D01*
X161964000Y-104699000D02*
X161964000Y-103581000D01*
X161924000Y-104494000D02*
X161924000Y-103786000D01*
X167935000Y-104140000D02*
X166735000Y-104140000D01*
X167335000Y-104790000D02*
X167335000Y-103490000D01*
D13*
X161671000Y-91567000D02*
X161671000Y-92710000D01*
X164719000Y-91567000D02*
X164719000Y-92710000D01*
X168529000Y-92710000D02*
X168529000Y-96393000D01*
X168529000Y-96393000D02*
X157861000Y-96393000D01*
X157861000Y-96393000D02*
X157861000Y-92710000D01*
X168529000Y-91567000D02*
X168529000Y-92710000D01*
X168529000Y-92710000D02*
X157861000Y-92710000D01*
X157861000Y-92710000D02*
X157861000Y-91567000D01*
X163195000Y-91567000D02*
X157861000Y-91567000D01*
X163195000Y-91567000D02*
X168529000Y-91567000D01*
X146431000Y-91567000D02*
X146431000Y-92710000D01*
X149479000Y-91567000D02*
X149479000Y-92710000D01*
X153289000Y-92710000D02*
X153289000Y-96393000D01*
X153289000Y-96393000D02*
X142621000Y-96393000D01*
X142621000Y-96393000D02*
X142621000Y-92710000D01*
X153289000Y-91567000D02*
X153289000Y-92710000D01*
X153289000Y-92710000D02*
X142621000Y-92710000D01*
X142621000Y-92710000D02*
X142621000Y-91567000D01*
X147955000Y-91567000D02*
X142621000Y-91567000D01*
X147955000Y-91567000D02*
X153289000Y-91567000D01*
D12*
X151990000Y-115570000D02*
G75*
G03X151990000Y-115570000I-860000J0D01*
G01*
X151990000Y-115570000D02*
X152670000Y-115570000D01*
D13*
X153670000Y-118110000D02*
X156210000Y-118110000D01*
X155089903Y-118110000D02*
G75*
G03X155089903Y-118110000I-1419903J0D01*
G01*
D12*
X143100000Y-112395000D02*
G75*
G03X143100000Y-112395000I-860000J0D01*
G01*
X142240000Y-113255000D02*
X142240000Y-113935000D01*
X148180000Y-114935000D02*
G75*
G03X148180000Y-114935000I-860000J0D01*
G01*
X147320000Y-114075000D02*
X147320000Y-113395000D01*
X163420000Y-107950000D02*
G75*
G03X163420000Y-107950000I-860000J0D01*
G01*
X162560000Y-108810000D02*
X162560000Y-109490000D01*
X145640000Y-104775000D02*
G75*
G03X145640000Y-104775000I-860000J0D01*
G01*
X144780000Y-103915000D02*
X144780000Y-103235000D01*
X160880000Y-113030000D02*
G75*
G03X160880000Y-113030000I-860000J0D01*
G01*
X160020000Y-112170000D02*
X160020000Y-111490000D01*
D13*
X140970000Y-120650000D02*
X139954000Y-120650000D01*
X146050000Y-120650000D02*
X143510000Y-120650000D01*
X149606000Y-120650000D02*
X148590000Y-120650000D01*
X141224000Y-116713000D02*
X141224000Y-117983000D01*
X142011400Y-117462300D02*
X141973300Y-117208300D01*
X141973300Y-117208300D02*
X141795500Y-116928900D01*
X141795500Y-116928900D02*
X141478000Y-116713000D01*
X141478000Y-116713000D02*
X141033500Y-116700300D01*
X141033500Y-116700300D02*
X140677900Y-116903500D01*
X140677900Y-116903500D02*
X140500100Y-117195600D01*
X140500100Y-117195600D02*
X140449300Y-117513100D01*
X140449300Y-117513100D02*
X140550900Y-117919500D01*
X140550900Y-117919500D02*
X140893800Y-118173500D01*
X140893800Y-118173500D02*
X141071600Y-118262400D01*
X139954000Y-117475000D02*
X139954000Y-116205000D01*
X139954000Y-116205000D02*
X149606000Y-116205000D01*
X149606000Y-116205000D02*
X149606000Y-121285000D01*
X139954000Y-121285000D02*
X139954000Y-118745000D01*
X139954000Y-118745000D02*
X139954000Y-117475000D01*
D12*
X154670000Y-102750000D02*
G75*
G02X152670000Y-102750000I-1000000J0D01*
G01*
X152670000Y-102750000D02*
X150900000Y-102750000D01*
X150900000Y-102750000D02*
X150900000Y-113150000D01*
X150900000Y-113150000D02*
X156440000Y-113150000D01*
X156440000Y-113150000D02*
X156440000Y-102750000D01*
X156440000Y-102750000D02*
X154670000Y-102750000D01*
X158065000Y-85615000D02*
X158065000Y-85135000D01*
X158065000Y-85135000D02*
X165785000Y-85135000D01*
X165785000Y-85135000D02*
X165785000Y-85615000D01*
X158065000Y-88375000D02*
X158065000Y-88855000D01*
X158065000Y-88855000D02*
X165785000Y-88855000D01*
X165785000Y-88855000D02*
X165785000Y-88375000D01*
X159265000Y-85135000D02*
X159265000Y-88855000D01*
X166795000Y-109700000D02*
X164675000Y-109700000D01*
X164675000Y-109700000D02*
X164675000Y-113820000D01*
X164675000Y-113820000D02*
X166795000Y-113820000D01*
X166795000Y-113820000D02*
X166795000Y-109700000D01*
X165735000Y-108930000D02*
X165735000Y-109700000D01*
X165735000Y-114590000D02*
X165735000Y-113820000D01*
X166795000Y-110360000D02*
X164675000Y-110360000D01*
X143300000Y-103985000D02*
X141180000Y-103985000D01*
X141180000Y-103985000D02*
X141180000Y-108105000D01*
X141180000Y-108105000D02*
X143300000Y-108105000D01*
X143300000Y-108105000D02*
X143300000Y-103985000D01*
X142240000Y-103215000D02*
X142240000Y-103985000D01*
X142240000Y-108875000D02*
X142240000Y-108105000D01*
X143300000Y-104645000D02*
X141180000Y-104645000D01*
X158910000Y-107190000D02*
X158910000Y-103670000D01*
X161130000Y-107190000D02*
X161130000Y-103670000D01*
X158910000Y-107190000D02*
X159024000Y-107190000D01*
X161016000Y-107190000D02*
X161130000Y-107190000D01*
X158910000Y-103670000D02*
X159024000Y-103670000D01*
X161016000Y-103670000D02*
X161130000Y-103670000D01*
D13*
X155035000Y-80585000D02*
X146035000Y-80585000D01*
X155035000Y-84285000D02*
X146035000Y-84285000D01*
X146035000Y-84285000D02*
X146035000Y-80585000D01*
X155035000Y-84285000D02*
X155035000Y-80585000D01*
X142840000Y-80370000D02*
X164340000Y-80370000D01*
X142840000Y-76070000D02*
X164340000Y-76070000D01*
X164340000Y-76070000D02*
X164340000Y-80370000D01*
X142840000Y-76070000D02*
X142840000Y-80370000D01*
X155035000Y-84395000D02*
X146035000Y-84395000D01*
X155035000Y-88095000D02*
X146035000Y-88095000D01*
X146035000Y-88095000D02*
X146035000Y-84395000D01*
X155035000Y-88095000D02*
X155035000Y-84395000D01*
X168108334Y-103227143D02*
X168060715Y-103274762D01*
X167917858Y-103322381D01*
X167822620Y-103322381D01*
X167679762Y-103274762D01*
X167584524Y-103179524D01*
X167536905Y-103084286D01*
X167489286Y-102893810D01*
X167489286Y-102750952D01*
X167536905Y-102560476D01*
X167584524Y-102465238D01*
X167679762Y-102370000D01*
X167822620Y-102322381D01*
X167917858Y-102322381D01*
X168060715Y-102370000D01*
X168108334Y-102417619D01*
X169060715Y-103322381D02*
X168489286Y-103322381D01*
X168775000Y-103322381D02*
X168775000Y-102322381D01*
X168679762Y-102465238D01*
X168584524Y-102560476D01*
X168489286Y-102608095D01*
X168814762Y-91352619D02*
X168719524Y-91305000D01*
X168624286Y-91209762D01*
X168481429Y-91066905D01*
X168386190Y-91019286D01*
X168290952Y-91019286D01*
X168338571Y-91257381D02*
X168243333Y-91209762D01*
X168148095Y-91114524D01*
X168100476Y-90924048D01*
X168100476Y-90590714D01*
X168148095Y-90400238D01*
X168243333Y-90305000D01*
X168338571Y-90257381D01*
X168529048Y-90257381D01*
X168624286Y-90305000D01*
X168719524Y-90400238D01*
X168767143Y-90590714D01*
X168767143Y-90924048D01*
X168719524Y-91114524D01*
X168624286Y-91209762D01*
X168529048Y-91257381D01*
X168338571Y-91257381D01*
X169719524Y-91257381D02*
X169148095Y-91257381D01*
X169433809Y-91257381D02*
X169433809Y-90257381D01*
X169338571Y-90400238D01*
X169243333Y-90495476D01*
X169148095Y-90543095D01*
X142144762Y-91352619D02*
X142049524Y-91305000D01*
X141954286Y-91209762D01*
X141811429Y-91066905D01*
X141716190Y-91019286D01*
X141620952Y-91019286D01*
X141668571Y-91257381D02*
X141573333Y-91209762D01*
X141478095Y-91114524D01*
X141430476Y-90924048D01*
X141430476Y-90590714D01*
X141478095Y-90400238D01*
X141573333Y-90305000D01*
X141668571Y-90257381D01*
X141859048Y-90257381D01*
X141954286Y-90305000D01*
X142049524Y-90400238D01*
X142097143Y-90590714D01*
X142097143Y-90924048D01*
X142049524Y-91114524D01*
X141954286Y-91209762D01*
X141859048Y-91257381D01*
X141668571Y-91257381D01*
X142478095Y-90352619D02*
X142525714Y-90305000D01*
X142620952Y-90257381D01*
X142859048Y-90257381D01*
X142954286Y-90305000D01*
X143001905Y-90352619D01*
X143049524Y-90447857D01*
X143049524Y-90543095D01*
X143001905Y-90685952D01*
X142430476Y-91257381D01*
X143049524Y-91257381D01*
X156043334Y-115387381D02*
X155710000Y-114911190D01*
X155471905Y-115387381D02*
X155471905Y-114387381D01*
X155852858Y-114387381D01*
X155948096Y-114435000D01*
X155995715Y-114482619D01*
X156043334Y-114577857D01*
X156043334Y-114720714D01*
X155995715Y-114815952D01*
X155948096Y-114863571D01*
X155852858Y-114911190D01*
X155471905Y-114911190D01*
X156995715Y-115387381D02*
X156424286Y-115387381D01*
X156710000Y-115387381D02*
X156710000Y-114387381D01*
X156614762Y-114530238D01*
X156519524Y-114625476D01*
X156424286Y-114673095D01*
X161123334Y-117292381D02*
X160790000Y-116816190D01*
X160551905Y-117292381D02*
X160551905Y-116292381D01*
X160932858Y-116292381D01*
X161028096Y-116340000D01*
X161075715Y-116387619D01*
X161123334Y-116482857D01*
X161123334Y-116625714D01*
X161075715Y-116720952D01*
X161028096Y-116768571D01*
X160932858Y-116816190D01*
X160551905Y-116816190D01*
X161504286Y-116387619D02*
X161551905Y-116340000D01*
X161647143Y-116292381D01*
X161885239Y-116292381D01*
X161980477Y-116340000D01*
X162028096Y-116387619D01*
X162075715Y-116482857D01*
X162075715Y-116578095D01*
X162028096Y-116720952D01*
X161456667Y-117292381D01*
X162075715Y-117292381D01*
X144552381Y-113831666D02*
X144076190Y-114165000D01*
X144552381Y-114403095D02*
X143552381Y-114403095D01*
X143552381Y-114022142D01*
X143600000Y-113926904D01*
X143647619Y-113879285D01*
X143742857Y-113831666D01*
X143885714Y-113831666D01*
X143980952Y-113879285D01*
X144028571Y-113926904D01*
X144076190Y-114022142D01*
X144076190Y-114403095D01*
X143552381Y-113498333D02*
X143552381Y-112879285D01*
X143933333Y-113212619D01*
X143933333Y-113069761D01*
X143980952Y-112974523D01*
X144028571Y-112926904D01*
X144123810Y-112879285D01*
X144361905Y-112879285D01*
X144457143Y-112926904D01*
X144504762Y-112974523D01*
X144552381Y-113069761D01*
X144552381Y-113355476D01*
X144504762Y-113450714D01*
X144457143Y-113498333D01*
X145912381Y-113831666D02*
X145436190Y-114165000D01*
X145912381Y-114403095D02*
X144912381Y-114403095D01*
X144912381Y-114022142D01*
X144960000Y-113926904D01*
X145007619Y-113879285D01*
X145102857Y-113831666D01*
X145245714Y-113831666D01*
X145340952Y-113879285D01*
X145388571Y-113926904D01*
X145436190Y-114022142D01*
X145436190Y-114403095D01*
X145245714Y-112974523D02*
X145912381Y-112974523D01*
X144864762Y-113212619D02*
X145579048Y-113450714D01*
X145579048Y-112831666D01*
X163012381Y-113196666D02*
X162536190Y-113530000D01*
X163012381Y-113768095D02*
X162012381Y-113768095D01*
X162012381Y-113387142D01*
X162060000Y-113291904D01*
X162107619Y-113244285D01*
X162202857Y-113196666D01*
X162345714Y-113196666D01*
X162440952Y-113244285D01*
X162488571Y-113291904D01*
X162536190Y-113387142D01*
X162536190Y-113768095D01*
X162012381Y-112291904D02*
X162012381Y-112768095D01*
X162488571Y-112815714D01*
X162440952Y-112768095D01*
X162393333Y-112672857D01*
X162393333Y-112434761D01*
X162440952Y-112339523D01*
X162488571Y-112291904D01*
X162583810Y-112244285D01*
X162821905Y-112244285D01*
X162917143Y-112291904D01*
X162964762Y-112339523D01*
X163012381Y-112434761D01*
X163012381Y-112672857D01*
X162964762Y-112768095D01*
X162917143Y-112815714D01*
X147137381Y-102401666D02*
X146661190Y-102735000D01*
X147137381Y-102973095D02*
X146137381Y-102973095D01*
X146137381Y-102592142D01*
X146185000Y-102496904D01*
X146232619Y-102449285D01*
X146327857Y-102401666D01*
X146470714Y-102401666D01*
X146565952Y-102449285D01*
X146613571Y-102496904D01*
X146661190Y-102592142D01*
X146661190Y-102973095D01*
X146137381Y-101544523D02*
X146137381Y-101735000D01*
X146185000Y-101830238D01*
X146232619Y-101877857D01*
X146375476Y-101973095D01*
X146565952Y-102020714D01*
X146946905Y-102020714D01*
X147042143Y-101973095D01*
X147089762Y-101925476D01*
X147137381Y-101830238D01*
X147137381Y-101639761D01*
X147089762Y-101544523D01*
X147042143Y-101496904D01*
X146946905Y-101449285D01*
X146708810Y-101449285D01*
X146613571Y-101496904D01*
X146565952Y-101544523D01*
X146518333Y-101639761D01*
X146518333Y-101830238D01*
X146565952Y-101925476D01*
X146613571Y-101973095D01*
X146708810Y-102020714D01*
X158612381Y-111926666D02*
X158136190Y-112260000D01*
X158612381Y-112498095D02*
X157612381Y-112498095D01*
X157612381Y-112117142D01*
X157660000Y-112021904D01*
X157707619Y-111974285D01*
X157802857Y-111926666D01*
X157945714Y-111926666D01*
X158040952Y-111974285D01*
X158088571Y-112021904D01*
X158136190Y-112117142D01*
X158136190Y-112498095D01*
X157612381Y-111593333D02*
X157612381Y-110926666D01*
X158612381Y-111355238D01*
X150947381Y-119975238D02*
X150471190Y-120308572D01*
X150947381Y-120546667D02*
X149947381Y-120546667D01*
X149947381Y-120165714D01*
X149995000Y-120070476D01*
X150042619Y-120022857D01*
X150137857Y-119975238D01*
X150280714Y-119975238D01*
X150375952Y-120022857D01*
X150423571Y-120070476D01*
X150471190Y-120165714D01*
X150471190Y-120546667D01*
X149947381Y-119689524D02*
X150947381Y-119356191D01*
X149947381Y-119022857D01*
X150947381Y-118165714D02*
X150947381Y-118737143D01*
X150947381Y-118451429D02*
X149947381Y-118451429D01*
X150090238Y-118546667D01*
X150185476Y-118641905D01*
X150233095Y-118737143D01*
X152908095Y-101202381D02*
X152908095Y-102011905D01*
X152955714Y-102107143D01*
X153003333Y-102154762D01*
X153098571Y-102202381D01*
X153289048Y-102202381D01*
X153384286Y-102154762D01*
X153431905Y-102107143D01*
X153479524Y-102011905D01*
X153479524Y-101202381D01*
X154479524Y-102202381D02*
X153908095Y-102202381D01*
X154193809Y-102202381D02*
X154193809Y-101202381D01*
X154098571Y-101345238D01*
X154003333Y-101440476D01*
X153908095Y-101488095D01*
X165370000Y-72477381D02*
X165560477Y-72477381D01*
X165655715Y-72525000D01*
X165750953Y-72620238D01*
X165798572Y-72810714D01*
X165798572Y-73144048D01*
X165750953Y-73334524D01*
X165655715Y-73429762D01*
X165560477Y-73477381D01*
X165370000Y-73477381D01*
X165274762Y-73429762D01*
X165179524Y-73334524D01*
X165131905Y-73144048D01*
X165131905Y-72810714D01*
X165179524Y-72620238D01*
X165274762Y-72525000D01*
X165370000Y-72477381D01*
X166227143Y-72477381D02*
X166227143Y-73286905D01*
X166274762Y-73382143D01*
X166322381Y-73429762D01*
X166417619Y-73477381D01*
X166608096Y-73477381D01*
X166703334Y-73429762D01*
X166750953Y-73382143D01*
X166798572Y-73286905D01*
X166798572Y-72477381D01*
X167131905Y-72477381D02*
X167703334Y-72477381D01*
X167417619Y-73477381D02*
X167417619Y-72477381D01*
X140446191Y-73477381D02*
X140446191Y-72477381D01*
X140922381Y-73477381D02*
X140922381Y-72477381D01*
X141493810Y-73477381D01*
X141493810Y-72477381D01*
X161186905Y-84587381D02*
X161186905Y-83587381D01*
X161425000Y-83587381D01*
X161567858Y-83635000D01*
X161663096Y-83730238D01*
X161710715Y-83825476D01*
X161758334Y-84015952D01*
X161758334Y-84158810D01*
X161710715Y-84349286D01*
X161663096Y-84444524D01*
X161567858Y-84539762D01*
X161425000Y-84587381D01*
X161186905Y-84587381D01*
X162091667Y-83587381D02*
X162710715Y-83587381D01*
X162377381Y-83968333D01*
X162520239Y-83968333D01*
X162615477Y-84015952D01*
X162663096Y-84063571D01*
X162710715Y-84158810D01*
X162710715Y-84396905D01*
X162663096Y-84492143D01*
X162615477Y-84539762D01*
X162520239Y-84587381D01*
X162234524Y-84587381D01*
X162139286Y-84539762D01*
X162091667Y-84492143D01*
X168247381Y-112498095D02*
X167247381Y-112498095D01*
X167247381Y-112260000D01*
X167295000Y-112117142D01*
X167390238Y-112021904D01*
X167485476Y-111974285D01*
X167675952Y-111926666D01*
X167818810Y-111926666D01*
X168009286Y-111974285D01*
X168104524Y-112021904D01*
X168199762Y-112117142D01*
X168247381Y-112260000D01*
X168247381Y-112498095D01*
X168247381Y-110974285D02*
X168247381Y-111545714D01*
X168247381Y-111260000D02*
X167247381Y-111260000D01*
X167390238Y-111355238D01*
X167485476Y-111450476D01*
X167533095Y-111545714D01*
X145232381Y-108053095D02*
X144232381Y-108053095D01*
X144232381Y-107815000D01*
X144280000Y-107672142D01*
X144375238Y-107576904D01*
X144470476Y-107529285D01*
X144660952Y-107481666D01*
X144803810Y-107481666D01*
X144994286Y-107529285D01*
X145089524Y-107576904D01*
X145184762Y-107672142D01*
X145232381Y-107815000D01*
X145232381Y-108053095D01*
X144327619Y-107100714D02*
X144280000Y-107053095D01*
X144232381Y-106957857D01*
X144232381Y-106719761D01*
X144280000Y-106624523D01*
X144327619Y-106576904D01*
X144422857Y-106529285D01*
X144518095Y-106529285D01*
X144660952Y-106576904D01*
X145232381Y-107148333D01*
X145232381Y-106529285D01*
X158267143Y-105596666D02*
X158314762Y-105644285D01*
X158362381Y-105787142D01*
X158362381Y-105882380D01*
X158314762Y-106025238D01*
X158219524Y-106120476D01*
X158124286Y-106168095D01*
X157933810Y-106215714D01*
X157790952Y-106215714D01*
X157600476Y-106168095D01*
X157505238Y-106120476D01*
X157410000Y-106025238D01*
X157362381Y-105882380D01*
X157362381Y-105787142D01*
X157410000Y-105644285D01*
X157457619Y-105596666D01*
X157457619Y-105215714D02*
X157410000Y-105168095D01*
X157362381Y-105072857D01*
X157362381Y-104834761D01*
X157410000Y-104739523D01*
X157457619Y-104691904D01*
X157552857Y-104644285D01*
X157648095Y-104644285D01*
X157790952Y-104691904D01*
X158362381Y-105263333D01*
X158362381Y-104644285D01*
X155535476Y-82002381D02*
X155868809Y-83002381D01*
X156202143Y-82002381D01*
X157106905Y-83002381D02*
X156773571Y-82526190D01*
X156535476Y-83002381D02*
X156535476Y-82002381D01*
X156916429Y-82002381D01*
X157011667Y-82050000D01*
X157059286Y-82097619D01*
X157106905Y-82192857D01*
X157106905Y-82335714D01*
X157059286Y-82430952D01*
X157011667Y-82478571D01*
X156916429Y-82526190D01*
X156535476Y-82526190D01*
X158059286Y-83002381D02*
X157487857Y-83002381D01*
X157773571Y-83002381D02*
X157773571Y-82002381D01*
X157678333Y-82145238D01*
X157583095Y-82240476D01*
X157487857Y-82288095D01*
X141271667Y-77398571D02*
X140938333Y-77398571D01*
X140938333Y-77922381D02*
X140938333Y-76922381D01*
X141414524Y-76922381D01*
X142319286Y-77922381D02*
X141747857Y-77922381D01*
X142033571Y-77922381D02*
X142033571Y-76922381D01*
X141938333Y-77065238D01*
X141843095Y-77160476D01*
X141747857Y-77208095D01*
X142835476Y-86447381D02*
X143168809Y-87447381D01*
X143502143Y-86447381D01*
X144406905Y-87447381D02*
X144073571Y-86971190D01*
X143835476Y-87447381D02*
X143835476Y-86447381D01*
X144216429Y-86447381D01*
X144311667Y-86495000D01*
X144359286Y-86542619D01*
X144406905Y-86637857D01*
X144406905Y-86780714D01*
X144359286Y-86875952D01*
X144311667Y-86923571D01*
X144216429Y-86971190D01*
X143835476Y-86971190D01*
X144787857Y-86542619D02*
X144835476Y-86495000D01*
X144930714Y-86447381D01*
X145168810Y-86447381D01*
X145264048Y-86495000D01*
X145311667Y-86542619D01*
X145359286Y-86637857D01*
X145359286Y-86733095D01*
X145311667Y-86875952D01*
X144740238Y-87447381D01*
X145359286Y-87447381D01*
M02*
