G04 #@! TF.FileFunction,Soldermask,Bot*
%FSLAX46Y46*%
G04 Gerber Fmt 4.6, Leading zero omitted, Abs format (unit mm)*
G04 Created by KiCad (PCBNEW 4.0.4-stable) date Saturday, 28 January 2017 'PMt' 01:33:58 PM*
%MOMM*%
%LPD*%
G01*
G04 APERTURE LIST*
%ADD10C,0.100000*%
%ADD11R,1.600000X1.600000*%
%ADD12C,1.600000*%
%ADD13O,1.501140X2.499360*%
%ADD14C,1.400000*%
%ADD15O,1.400000X1.400000*%
%ADD16C,1.397000*%
%ADD17C,1.524000*%
%ADD18O,1.600000X1.600000*%
%ADD19C,3.500120*%
%ADD20C,2.500000*%
%ADD21R,2.400000X2.400000*%
%ADD22O,2.400000X2.400000*%
%ADD23C,2.000000*%
G04 APERTURE END LIST*
D10*
D11*
X165735000Y-104140000D03*
D12*
X163235000Y-104140000D03*
D13*
X163195000Y-94615000D03*
X160655000Y-94615000D03*
X165735000Y-94615000D03*
X147955000Y-94615000D03*
X145415000Y-94615000D03*
X150495000Y-94615000D03*
D14*
X151130000Y-115570000D03*
D15*
X153670000Y-115570000D03*
D16*
X153670000Y-118110000D03*
X156210000Y-118110000D03*
D14*
X142240000Y-112395000D03*
D15*
X142240000Y-114935000D03*
D14*
X147320000Y-114935000D03*
D15*
X147320000Y-112395000D03*
D14*
X162560000Y-107950000D03*
D15*
X162560000Y-110490000D03*
D14*
X144780000Y-104775000D03*
D15*
X144780000Y-102235000D03*
D14*
X160020000Y-113030000D03*
D15*
X160020000Y-110490000D03*
D17*
X144780000Y-117475000D03*
X147320000Y-120015000D03*
X142240000Y-120015000D03*
D11*
X149860000Y-104140000D03*
D18*
X157480000Y-111760000D03*
X149860000Y-106680000D03*
X157480000Y-109220000D03*
X149860000Y-109220000D03*
X157480000Y-106680000D03*
X149860000Y-111760000D03*
X157480000Y-104140000D03*
D19*
X158115000Y-74295000D03*
X163195000Y-74295000D03*
X143510000Y-74295000D03*
X148590000Y-74295000D03*
D20*
X141605000Y-81915000D03*
X168275000Y-81915000D03*
D21*
X156845000Y-86995000D03*
D22*
X167005000Y-86995000D03*
D11*
X165735000Y-107950000D03*
D18*
X165735000Y-115570000D03*
D11*
X142240000Y-102235000D03*
D18*
X142240000Y-109855000D03*
D12*
X160020000Y-106680000D03*
X160020000Y-104180000D03*
X153035000Y-83185000D03*
X148035000Y-81685000D03*
D23*
X148590000Y-77470000D03*
X158590000Y-78970000D03*
D12*
X153035000Y-86995000D03*
X148035000Y-85495000D03*
M02*
